{"title":"Race to Witch Mountain-AC3-5,1-DVDRip[Eng]2009","uid":5007722,"size":1464168211,"categoryP":"video","categoryS":"movies","magnet":"?xt=urn:btih:f678ad2f9c67b84f9e8a088cc25dc7e741e69e44&amp;dn=Race+to+Witch+Mountain-AC3-5%2C1-DVDRip%5BEng%5D2009&amp;tr=udp%3A%2F%2Ftracker.openbittorrent.com%3A80&amp;tr=udp%3A%2F%2Fopen.demonii.com%3A1337&amp;tr=udp%3A%2F%2Ftracker.coppersurfer.tk%3A6969&amp;tr=udp%3A%2F%2Fexodus.desync.com%3A6969","seeders":1,"leechers":0,"uploader":"FatFreddy31","files":5,"time":1247839210,"description":" &lt;a href=&quot;http://www.imdb.com/title/tt1075417/&quot; rel=&quot;nofollow&quot; target=&quot;_NEW&quot;&gt;http://www.imdb.com/title/tt1075417/&lt;/a&gt;\n\nUser Rating:6.2/10 - 3,946 votes\n\nAdventure,Fantasy,Sci-Fi,Thriller\n\nDirector:Andy Fickman\n\nCast:Dwayne Johnson/AnnaSophia Robb/Alexander Ludwig/Carla Gugino, and others.\n\nPlot:\nA Las Vegas cabbie enlists the help of a UFO expert to protect two siblings with paranormal powers from the clutches of an organization that wants to use the kids for their nefarious plans...\n\nInfo:\n\nCovers included.\n\nGeneral\nComplete name                    : Race to Witch Mountain-AC3-5,1-DVDRip[Eng]2009.avi\nFormat                           : AVI\nFormat/Info                      : Audio Video Interleave\nFile size                        : 1.36 GiB\nDuration                         : 1h 38mn\nOverall bit rate                 : 1 984 Kbps\nWriting application              : VirtualDubMod 1.5.4.1 (build 2178/release)\nWriting library                  : VirtualDubMod build 2178/release\n\nVideo\nFormat                           : MPEG-4 Visual\nFormat profile                   : Simple@L3\nFormat settings, BVOP            : No\nFormat settings, QPel            : No\nFormat settings, GMC             : No warppoints\nFormat settings, Matrix          : Default\nCodec ID                         : XVID\nCodec ID/Hint                    : XviD\nDuration                         : 1h 38mn\nBit rate                         : 1 591 Kbps\nWidth                            : 640 pixels\nHeight                           : 272 pixels\nDisplay aspect ratio             : 2.35\nFrame rate                       : 23.976 fps\nResolution                       : 24 bits\nColorimetry                      : 4:2:0\nScan type                        : Progressive\nBits/(Pixel*Frame)               : 0.381\nStream size                      : 1.09 GiB (80%)\nWriting library                  : XviD 1.1.2 (UTC 2006-11-01)\n\nAudio\nFormat                           : AC-3\nFormat/Info                      : Audio Coding 3\nCodec ID                         : 2000\nDuration                         : 1h 38mn\nBit rate mode                    : Constant\nBit rate                         : 384 Kbps\nChannel(s)                       : 6 channels\nChannel positions                : Front: L C R, Surround: L R, LFE\nSampling rate                    : 48.0 KHz\nStream size                      : 270 MiB (19%)\nAlignment                        : Split accross interleaves\nInterleave, duration             : 42 ms (1.00 video frame)\nInterleave, preload duration     : 500 ms\n\nEnjoy....","torrent":{"xt":"urn:btih:f678ad2f9c67b84f9e8a088cc25dc7e741e69e44","amp;dn":"Race+to+Witch+Mountain-AC3-5%2C1-DVDRip%5BEng%5D2009","amp;tr":["udp%3A%2F%2Ftracker.openbittorrent.com%3A80","udp%3A%2F%2Fopen.demonii.com%3A1337","udp%3A%2F%2Ftracker.coppersurfer.tk%3A6969","udp%3A%2F%2Fexodus.desync.com%3A6969"],"infoHash":"f678ad2f9c67b84f9e8a088cc25dc7e741e69e44","infoHashBuffer":{"type":"Buffer","data":[246,120,173,47,156,103,184,79,158,138,8,140,194,93,199,231,65,230,158,68]},"announce":[],"urlList":[]}}